<svg id="visual" viewBox="0 0 960 300" width="960" height="300" xmlns="http://www.w3.org/2000/svg" xmlns:xlink="http://www.w3.org/1999/xlink" version="1.1"><rect x="0" y="0" width="960" height="300" fill="#56B8DC"></rect><path d="M0 226L7 218.8C14 211.7 28 197.3 41.8 191C55.7 184.7 69.3 186.3 83.2 193C97 199.7 111 211.3 125 218.3C139 225.3 153 227.7 167 226.8C181 226 195 222 208.8 219C222.7 216 236.3 214 250.2 216.3C264 218.7 278 225.3 292 222.8C306 220.3 320 208.7 334 205.7C348 202.7 362 208.3 375.8 212.8C389.7 217.3 403.3 220.7 417.2 222.3C431 224 445 224 459 217C473 210 487 196 501 196.5C515 197 529 212 542.8 217.2C556.7 222.3 570.3 217.7 584.2 213.8C598 210 612 207 626 202C640 197 654 190 668 194.2C682 198.3 696 213.7 709.8 217.5C723.7 221.3 737.3 213.7 751.2 207.8C765 202 779 198 793 201.5C807 205 821 216 835 214.2C849 212.3 863 197.7 876.8 198.3C890.7 199 904.3 215 918.2 219C932 223 946 215 953 211L960 207L960 301L953 301C946 301 932 301 918.2 301C904.3 301 890.7 301 876.8 301C863 301 849 301 835 301C821 301 807 301 793 301C779 301 765 301 751.2 301C737.3 301 723.7 301 709.8 301C696 301 682 301 668 301C654 301 640 301 626 301C612 301 598 301 584.2 301C570.3 301 556.7 301 542.8 301C529 301 515 301 501 301C487 301 473 301 459 301C445 301 431 301 417.2 301C403.3 301 389.7 301 375.8 301C362 301 348 301 334 301C320 301 306 301 292 301C278 301 264 301 250.2 301C236.3 301 222.7 301 208.8 301C195 301 181 301 167 301C153 301 139 301 125 301C111 301 97 301 83.2 301C69.3 301 55.7 301 41.8 301C28 301 14 301 7 301L0 301Z" fill="#7bbed9"></path><path d="M0 212L7 213.2C14 214.3 28 216.7 41.8 222.3C55.7 228 69.3 237 83.2 241.5C97 246 111 246 125 244.3C139 242.7 153 239.3 167 239.3C181 239.3 195 242.7 208.8 241C222.7 239.3 236.3 232.7 250.2 234.2C264 235.7 278 245.3 292 248.3C306 251.3 320 247.7 334 242C348 236.3 362 228.7 375.8 229.7C389.7 230.7 403.3 240.3 417.2 238.7C431 237 445 224 459 219.7C473 215.3 487 219.7 501 225.2C515 230.7 529 237.3 542.8 236C556.7 234.7 570.3 225.3 584.2 220.3C598 215.3 612 214.7 626 218.8C640 223 654 232 668 239C682 246 696 251 709.8 247.7C723.7 244.3 737.3 232.7 751.2 232.7C765 232.7 779 244.3 793 245.2C807 246 821 236 835 233.5C849 231 863 236 876.8 239.8C890.7 243.7 904.3 246.3 918.2 243.8C932 241.3 946 233.7 953 229.8L960 226L960 301L953 301C946 301 932 301 918.2 301C904.3 301 890.7 301 876.8 301C863 301 849 301 835 301C821 301 807 301 793 301C779 301 765 301 751.2 301C737.3 301 723.7 301 709.8 301C696 301 682 301 668 301C654 301 640 301 626 301C612 301 598 301 584.2 301C570.3 301 556.7 301 542.8 301C529 301 515 301 501 301C487 301 473 301 459 301C445 301 431 301 417.2 301C403.3 301 389.7 301 375.8 301C362 301 348 301 334 301C320 301 306 301 292 301C278 301 264 301 250.2 301C236.3 301 222.7 301 208.8 301C195 301 181 301 167 301C153 301 139 301 125 301C111 301 97 301 83.2 301C69.3 301 55.7 301 41.8 301C28 301 14 301 7 301L0 301Z" fill="#a2dbf0"></path><path d="M0 257L7 256.3C14 255.7 28 254.3 41.8 254C55.7 253.7 69.3 254.3 83.2 257C97 259.7 111 264.3 125 265.2C139 266 153 263 167 261.8C181 260.7 195 261.3 208.8 259.2C222.7 257 236.3 252 250.2 249.7C264 247.3 278 247.7 292 250.2C306 252.7 320 257.3 334 259.7C348 262 362 262 375.8 260.5C389.7 259 403.3 256 417.2 252.8C431 249.7 445 246.3 459 249C473 251.7 487 260.3 501 266C515 271.7 529 274.3 542.8 270.7C556.7 267 570.3 257 584.2 253.5C598 250 612 253 626 254C640 255 654 254 668 255.3C682 256.7 696 260.3 709.8 261C723.7 261.7 737.3 259.3 751.2 259.5C765 259.7 779 262.3 793 262C807 261.7 821 258.3 835 255.5C849 252.7 863 250.3 876.8 248.7C890.7 247 904.3 246 918.2 251.2C932 256.3 946 267.7 953 273.3L960 279L960 301L953 301C946 301 932 301 918.2 301C904.3 301 890.7 301 876.8 301C863 301 849 301 835 301C821 301 807 301 793 301C779 301 765 301 751.2 301C737.3 301 723.7 301 709.8 301C696 301 682 301 668 301C654 301 640 301 626 301C612 301 598 301 584.2 301C570.3 301 556.7 301 542.8 301C529 301 515 301 501 301C487 301 473 301 459 301C445 301 431 301 417.2 301C403.3 301 389.7 301 375.8 301C362 301 348 301 334 301C320 301 306 301 292 301C278 301 264 301 250.2 301C236.3 301 222.7 301 208.8 301C195 301 181 301 167 301C153 301 139 301 125 301C111 301 97 301 83.2 301C69.3 301 55.7 301 41.8 301C28 301 14 301 7 301L0 301Z" fill="#c0e6f4"></path></svg>