<svg id="visual" viewBox="0 0 960 300" width="960" height="300" xmlns="http://www.w3.org/2000/svg" xmlns:xlink="http://www.w3.org/1999/xlink" version="1.1"><rect x="0" y="0" width="960" height="300" fill="#56B8DC"></rect><defs><linearGradient id="grad1_0" x1="68.8%" y1="100%" x2="100%" y2="0%"><stop offset="-14.000000000000007%" stop-color="#56b8dc" stop-opacity="1"></stop><stop offset="114.00000000000001%" stop-color="#56b8dc" stop-opacity="1"></stop></linearGradient></defs><defs><linearGradient id="grad2_0" x1="0%" y1="100%" x2="31.3%" y2="0%"><stop offset="-14.000000000000007%" stop-color="#56b8dc" stop-opacity="1"></stop><stop offset="114.00000000000001%" stop-color="#56b8dc" stop-opacity="1"></stop></linearGradient></defs><g transform="translate(960, 300)"><path d="M-300 0C-294 -55.7 -288.1 -111.4 -259.8 -150C-231.6 -188.6 -181 -210 -134 -232.1C-87 -254.2 -43.5 -277.1 0 -300L0 0Z" fill="#84daf9"></path></g><g transform="translate(0, 0)"><path d="M300 0C279.9 45.1 259.8 90.2 237.3 137C214.8 183.8 189.9 232.4 150 259.8C110.1 287.3 55 293.6 0 300L0 0Z" fill="#84daf9"></path></g></svg>