<svg id="visual" viewBox="0 0 960 300" width="960" height="300" xmlns="http://www.w3.org/2000/svg" xmlns:xlink="http://www.w3.org/1999/xlink" version="1.1"><rect x="0" y="0" width="960" height="300" fill="#56B8DC"></rect><path d="M0 25L20 28C40 31 80 37 120 43.7C160 50.3 200 57.7 240 56.8C280 56 320 47 360 42.3C400 37.7 440 37.3 480 35C520 32.7 560 28.3 600 33.2C640 38 680 52 720 56C760 60 800 54 840 48.3C880 42.7 920 37.3 940 34.7L960 32L960 0L940 0C920 0 880 0 840 0C800 0 760 0 720 0C680 0 640 0 600 0C560 0 520 0 480 0C440 0 400 0 360 0C320 0 280 0 240 0C200 0 160 0 120 0C80 0 40 0 20 0L0 0Z" fill="#b0e5f9"></path></svg>