<svg xmlns="http://www.w3.org/2000/svg" xmlns:xlink="http://www.w3.org/1999/xlink" xmlns:xodm="http://www.corel.com/coreldraw/odm/2003" xml:space="preserve" version="1.1" style="shape-rendering:geometricPrecision;text-rendering:geometricPrecision;image-rendering:optimizeQuality;" viewBox="0 0 100000 125000" x="0px" y="0px" fill-rule="evenodd" clip-rule="evenodd"><defs><style type="text/css">
   
    .fil0 {fill:black;fill-rule:nonzero}
   
  </style></defs><g><path class="fil0" d="M96713.95 69103.16c88.73,-123.26 260.6,-151.26 383.86,-62.53 123.27,88.73 151.27,260.6 62.54,383.86 -987.3,1375.05 -2231.9,2807.01 -3554.27,4137.41 -1379.81,1388.18 -2846.01,2667.97 -4194.58,3659.21 -122.67,89.91 -295.03,63.36 -384.94,-59.31 -89.91,-122.67 -63.35,-295.03 59.31,-384.94 1326.85,-975.28 2770.44,-2235.45 4129.88,-3603.14 1304.09,-1312.02 2529.28,-2721.1 3498.2,-4070.56zm-87709.11 -28999.46c605.25,0 1153.26,245.36 1549.94,642.05 396.7,396.7 642.05,944.7 642.05,1549.95 0,605.25 -245.36,1153.26 -642.05,1549.94 -396.68,396.68 -944.69,642.05 -1549.94,642.05 -605.25,0 -1153.26,-245.37 -1549.94,-642.05 -396.69,-396.68 -642.06,-944.68 -642.06,-1549.94 0,-605.26 245.37,-1153.26 642.06,-1549.94 396.68,-396.7 944.68,-642.06 1549.94,-642.06zm899.4 1292.59c-230.13,-230.14 -548.13,-372.49 -899.4,-372.49 -351.27,0 -669.27,142.35 -899.4,372.5 -230.15,230.13 -372.5,548.13 -372.5,899.4 0,351.27 142.36,669.27 372.5,899.4 230.13,230.14 548.13,372.49 899.4,372.49 351.27,0 669.27,-142.35 899.4,-372.49 230.14,-230.13 372.49,-548.13 372.49,-899.4 0,-351.27 -142.35,-669.27 -372.49,-899.41zm-7371.5 20584.85c705.95,0 1345.11,286.17 1807.79,748.85 462.68,462.68 748.85,1101.84 748.85,1807.79 0,705.93 -286.18,1345.1 -748.86,1807.77 -462.68,462.68 -1101.83,748.85 -1807.78,748.85 -705.93,0 -1345.09,-286.17 -1807.77,-748.85 -462.68,-462.68 -748.85,-1101.84 -748.85,-1807.77 0,-705.95 286.17,-1345.11 748.85,-1807.79 462.68,-462.68 1101.83,-748.85 1807.77,-748.85zm1157.25 1399.39c-296.12,-296.12 -705.28,-479.29 -1157.25,-479.29 -451.96,0 -861.11,183.17 -1157.23,479.29 -296.11,296.11 -479.29,705.27 -479.29,1157.25 0,451.95 183.17,861.11 479.29,1157.23 296.12,296.12 705.28,479.29 1157.23,479.29 451.97,0 861.13,-183.18 1157.24,-479.29 296.13,-296.12 479.3,-705.28 479.3,-1157.23 0,-451.97 -183.17,-861.13 -479.29,-1157.25zm10635.72 10903.93c545.51,0 1039.42,221.16 1396.96,578.68 357.53,357.53 578.68,851.46 578.68,1396.96 0,545.51 -221.15,1039.43 -578.68,1396.96 -357.54,357.53 -851.45,578.68 -1396.96,578.68 -545.51,0 -1039.43,-221.15 -1396.97,-578.68 -357.53,-357.53 -578.68,-851.45 -578.68,-1396.96 0,-545.5 221.15,-1039.43 578.68,-1396.96 357.54,-357.52 851.46,-578.68 1396.97,-578.68zm746.42 1229.22c-190.99,-190.98 -454.9,-309.12 -746.42,-309.12 -291.52,0 -555.44,118.14 -746.43,309.12 -190.98,190.99 -309.12,454.9 -309.12,746.42 0,291.52 118.14,555.44 309.12,746.42 190.99,190.98 454.91,309.12 746.43,309.12 291.52,0 555.43,-118.14 746.42,-309.12 190.98,-190.98 309.12,-454.9 309.12,-746.42 0,-291.52 -118.14,-555.43 -309.12,-746.42zm2006.83 -25271.77c54.58,-248.12 299.98,-405 548.1,-350.42 248.12,54.58 405.01,299.98 350.43,548.1 -129.1,585.96 -83.65,1083.23 85.77,1486.07 183.64,436.61 515.97,774.38 930.38,1001.31 432.74,236.98 953.43,355.13 1492.15,342.51 672.87,-15.77 1369.58,-236.11 1955.9,-684.2 201.47,-153.83 489.52,-115.21 643.35,86.27 153.83,201.48 115.21,489.52 -86.27,643.35 -746.45,570.46 -1633.94,850.99 -2491.41,871.09 -610.45,14.32 -1207.86,-103.6 -1731.23,-343.11 -1921.59,1650.31 -3886.64,1811.42 -5385.05,1154.45 -898.48,-393.93 -1625.13,-1083.57 -2073.63,-1925.74 -2442.22,194.69 -3725.48,1013.88 -4219.27,1950.1 -224.9,426.42 -282.83,879.55 -210.93,1303.09 72.34,426.21 276.09,823.62 573.65,1135.35 512.42,536.85 1309.04,812.67 2194.95,531.56 272.13,-299.13 572.55,-604.18 903.53,-914.87 184.6,-173.69 475.06,-164.83 648.74,19.77 173.68,184.59 164.83,475.05 -19.77,648.73 -340.56,319.69 -645.63,630.92 -917.76,933.37 -8.38,10.25 -17.21,20.17 -26.49,29.68 -1649.46,1844.41 -2071.24,3360.72 -1830,4474.27 178.23,822.66 728.92,1428.78 1401.27,1774.33 466.04,239.53 986.91,354.48 1481.05,330.55 9.36,-0.81 18.76,-1.31 28.2,-1.54 214.99,-12.74 424.61,-51.92 622.09,-118.75 654.57,-221.52 1176.14,-768.14 1295.32,-1689.69 25.4,-537.97 187.14,-1148.74 526.5,-1827.48 113.14,-226.29 388.32,-318.01 614.6,-204.87 226.29,113.14 318.01,388.32 204.87,614.6 -230.54,461.1 -360,872.81 -408.91,1234.84 -4.77,88.84 -12.04,175.58 -21.84,260.14 -13.5,446.05 104.99,805.01 308.12,1076.04 219.84,293.31 543.65,491.42 905.99,588.91 374,100.63 785.39,93.3 1166.85,-27.12 679.65,-214.52 1261.66,-800.3 1353.53,-1789.62 22.83,-252.08 245.7,-437.94 497.79,-415.12 252.08,22.83 437.94,245.7 415.11,497.79 -131.9,1420.33 -988.11,2267.78 -1989.67,2583.93 -548.19,173.04 -1140.82,183.2 -1680.83,37.9 -551.68,-148.44 -1051.95,-459.74 -1401.98,-926.76 -37.79,-50.43 -73.76,-102.6 -107.82,-156.45 -348.42,493.21 -833.72,826.88 -1382.9,1012.73 -180.92,61.23 -368.73,105.65 -560.63,133.73 -283.58,977.69 -207.6,1806.79 100.77,2461.22 175.57,372.54 426.95,691.28 730.04,950.45 307.53,262.97 668.28,465.4 1057.59,601.45 863.6,301.81 1862.62,278.04 2734.66,-132.89 652.59,-307.51 1194.06,-448.82 1639.38,-298.31 500.58,169.19 797.21,628.78 871.15,1505.93 140.27,1664.42 993.96,2597.51 2024.93,2935.81 574.53,188.52 1205.16,199.98 1801.38,56.07 598.04,-144.35 1159.32,-443.88 1593.08,-876.8 796.02,-794.46 1157.66,-2060.23 511.34,-3668.11 -94.28,-235.22 19.97,-502.35 255.18,-596.63 235.22,-94.28 502.35,19.97 596.63,255.18 807.51,2008.89 321.77,3624.14 -716.2,4660.1 -554.21,553.14 -1267.31,934.86 -2024.39,1117.61 -758.89,183.18 -1564.26,167.7 -2300.96,-74.04 -1358.86,-445.89 -2480.77,-1636.7 -2657.51,-3733.72 -38.35,-455.09 -120.81,-669.4 -245.77,-711.63 -180.22,-60.9 -510.86,48.81 -956.47,258.8 -1095.02,516.01 -2347.33,546.61 -3428.34,168.82 -496.12,-173.38 -957.32,-432.64 -1352.3,-770.38 -399.43,-341.55 -731.22,-762.67 -963.67,-1255.94 -369.39,-783.88 -486.59,-1742.75 -222.15,-2842.86 -458.47,-54.44 -914.79,-192.39 -1334.33,-408.01 -899.32,-462.21 -1637.46,-1279.92 -1879.28,-2396.12 -251.75,-1162.03 44.63,-2641.94 1295.36,-4355.33 -800.89,-36.55 -1503.84,-393.23 -2014.95,-928.69 -421.8,-441.91 -711.06,-1007.83 -814.46,-1616.97 -103.85,-611.82 -20.28,-1266.18 304.4,-1881.75 602.7,-1142.73 2044.2,-2141.72 4679.08,-2411.72 -220.34,-812.82 -201.18,-1705.6 128.68,-2582.66 641.48,-1705.59 2464.32,-3344.01 6004.88,-4152.11 -549.79,-629.14 -865.04,-1333.85 -992.18,-2070.27 -173.68,-1005.95 11.08,-2061.38 430.39,-3053.6 411.32,-973.32 1047.76,-1886.21 1789.2,-2627.65 788.42,-788.42 1704.99,-1392.63 2609.57,-1683.27 -276.76,-611.27 -438.78,-1240.23 -497.07,-1873.78 -136.18,-1480.24 299.47,-2970.17 1163.05,-4303.45 849.65,-1311.76 2115.54,-2473.54 3656.36,-3321.37 1333.21,-733.6 2876.49,-1233.96 4537.83,-1394.39 1113.39,-1779.65 2849.01,-3421.24 5196.7,-4585.78 459.12,-227.74 967.13,-449.19 1508.84,-652.71 1947.79,-3280.19 5021.99,-5793.82 8646.51,-7516.11 3973.55,-1888.13 8614.85,-2825.53 13154.26,-2777.6 5681.05,59.97 10238.36,1190.45 14003.97,3186.32 3772.96,1999.77 6742.99,4861.51 9245.63,8381.22 146.89,206.44 98.61,492.89 -107.82,639.77 -206.43,146.88 -492.88,98.61 -639.76,-107.82 -2423,-3407.72 -5291.21,-6174.5 -8925.75,-8100.9 -3641.92,-1930.31 -8061.52,-3023.78 -13583.47,-3082.08 -4404.35,-46.5 -8905.01,861.78 -12755.3,2691.34 -3114.88,1480.13 -5799.71,3563.14 -7653.79,6229.89 379.04,-107.67 766.98,-203.95 1159.73,-285.67 1266.43,-263.49 2585.43,-376.75 3823.32,-236.63 252.08,27.78 433.91,254.68 406.13,506.77 -27.78,252.08 -254.68,433.91 -506.77,406.13 -1137.21,-128.72 -2358.14,-22.76 -3535.79,222.26 -783.25,162.96 -1546.21,387.06 -2252.68,644.57 -5.6,2.16 -11.23,4.24 -16.9,6.17 -563.87,206.22 -1091.45,433.62 -1564.22,668.14 -2289.57,1135.72 -3948.13,2749.19 -4967.25,4481.92 -1112,1890.69 -1460.23,3917.49 -1030.92,5604.17 263.42,1034.88 821.78,1940.85 1677.85,2602.58 801.14,619.28 1869.48,1031.49 3209.46,1145.58 1328.54,113.11 2318.19,-166.76 2985.56,-672.66 321.64,-243.82 569.25,-540.83 744.07,-871.07 176.26,-332.96 280.21,-702.21 312.99,-1087.29 71.3,-837.59 -193.37,-1744.67 -781.82,-2520.94 -106.88,-140.99 -205.72,-316.93 -288.51,-518.14 -202.87,-493 -308.55,-1153.22 -186.45,-1823.08 124.08,-680.7 476.93,-1371.13 1189.31,-1911.13 253.51,-192.17 554.59,-365.16 909.59,-511.24 234.23,-96.27 502.16,15.57 598.43,249.79 96.28,234.23 -15.56,502.16 -249.79,598.43 -274.79,113.07 -508.08,247.15 -704.74,396.23 -505.27,383.01 -754.34,866.07 -840.66,1339.65 -88.29,484.38 -12.88,959.36 132.53,1312.71 50.8,123.47 110.22,229.8 173.5,313.29 728.32,960.77 1054.97,2094.61 965.12,3149.9 -43.04,505.64 -181.59,994.39 -417.24,1439.52 -237.08,447.85 -570.88,849.13 -1002.84,1176.58 -164.32,124.56 -342.76,238.29 -535.21,339.72 -768.87,1539.27 -610.1,2708.36 -9.76,3474.5 380.1,485.09 939.45,820.7 1553.75,993.91 623.46,175.79 1295.96,183.04 1892.21,9.17 901.85,-263 1629.33,-958.91 1709.56,-2135.01 2.03,-30.31 6.97,-59.74 14.5,-88.05 -1220.21,-1186.01 -1895.84,-3054.38 -1341,-5546.81 299.11,-1343.7 771.87,-2555.49 1387.02,-3640.43 1867.4,-3293.55 5038.45,-5415.72 8643.41,-6511.02 3574.91,-1086.18 7581.57,-1160.79 11157.03,-364.87 1838.24,409.22 3564.73,1048.13 5063.14,1897.72 220.33,125.05 297.56,405.05 172.52,625.38 -125.05,220.33 -405.05,297.56 -625.38,172.51 -1420.18,-805.22 -3059.72,-1411.5 -4807.96,-1800.67 -3430.17,-763.58 -7270.55,-693.07 -10693.38,346.9 -3392.77,1030.84 -6370.26,3015.9 -8111.49,6086.91 -572.23,1009.24 -1011.9,2136.1 -1289.98,3385.25 -538.98,2421.25 249.82,4127.65 1526.83,5063.38 703.29,515.34 1554.7,802.63 2414.33,851.1 857.82,48.37 1720.27,-140.73 2447.71,-577.97 1276.92,-767.53 2145.24,-2323.73 1850.42,-4737.86 -78.06,-639.21 -32.82,-1278.55 130.28,-1887.22 256.45,-957.14 805.14,-1835.95 1624.88,-2516.43 809.92,-672.33 1879.64,-1147.69 3186.29,-1307.25 1096.98,-133.94 2364.12,-46.11 3787.16,335.19 245.14,65.5 390.76,317.35 325.27,562.49 -65.5,245.15 -317.35,390.77 -562.49,325.27 -1302.23,-348.93 -2451.75,-430.53 -3438.52,-310.05 -1125.59,137.46 -2034.72,536.68 -2711.88,1098.81 -667.33,553.97 -1114.08,1269.61 -1322.96,2049.19 -132.47,494.41 -168.98,1015.62 -105.13,1538.58 346.29,2835.5 -725.5,4694.52 -2292.5,5636.4 -888.75,534.21 -1934.48,765.69 -2968.86,707.36 -914.99,-51.6 -1823.96,-329.77 -2610.01,-825.43 -266.07,1321.61 -1188.72,2122.07 -2303.63,2447.19 -169.09,49.32 -342.61,87.31 -518.81,114.2 -227.13,671.82 -637.11,1222.98 -1162.17,1649.62 -596.68,484.82 -1340.23,806.51 -2127.64,958.75 -776.91,150.23 -1603.13,135.72 -2376.55,-49.85 -855.11,-205.16 -1646.54,-619.69 -2241.05,-1252.46 -293.45,102.85 -600.34,181.1 -914.8,234.23 -698.23,117.99 -1437.42,112.78 -2149.81,-20.55 -717.13,-134.23 -1409.39,-399.31 -2008.87,-800.46 -837.48,-560.41 -1489.66,-1380.36 -1775.39,-2472.98 -200.21,0.88 -400.37,-12.08 -599.37,-38.3 -865.52,-114.08 -1706.09,-479.24 -2430.21,-1039.4 -492.59,-381.06 -932.2,-852.32 -1289.72,-1395.86 -811.26,213.73 -1667.37,765.28 -2412.01,1509.92 -665.48,665.48 -1233.15,1476.42 -1595.11,2332.93 -353.97,837.62 -511.75,1718.1 -369.29,2543.24 111.59,646.31 412.44,1264.79 955.36,1807.71 582.25,582.25 1343.55,908.63 2133.04,1014.93 628.71,84.65 1274.78,30.25 1864.17,-145.34 577.43,-172.02 1095.69,-460.07 1482.09,-846.47 356.58,-356.58 599.87,-798.02 668.62,-1308.62 33.74,-251.09 264.67,-427.29 515.76,-393.55 251.1,33.74 427.29,264.67 393.56,515.76 -97.71,725.66 -434.94,1344.49 -927.4,1836.95 -92.66,92.66 -190.84,180.79 -293.97,264.26 361.12,283.87 774.64,489.45 1207.92,617.29 590.45,174.22 1216.05,203.73 1795.37,90.25 565.27,-110.72 1081.59,-356.99 1469.07,-736.71 276.65,-271.09 490.31,-612.62 611.69,-1023.97 71.45,-243.15 326.51,-382.35 569.66,-310.89 243.16,71.45 382.35,326.51 310.9,569.66 -167.95,569.19 -464.51,1042.64 -848.91,1419.33 -522.54,512.07 -1202.26,840.94 -1936.31,984.72 -720.02,141.03 -1497.17,104.47 -2230.24,-111.83 -641.68,-189.33 -1250.79,-516.72 -1760.28,-983.68 -242.87,119.17 -499.41,218.9 -765.15,298.07 -709.16,211.27 -1488.45,276.46 -2248.76,174.09 -713.11,-96.03 -1409.95,-339.08 -2018.83,-746.58 -3625.84,674.23 -5425.47,2169.42 -6006.78,3715.02 -320.48,852.12 -267.14,1722.12 54.02,2467.48 5.74,11.69 10.98,23.69 15.73,35.93l2.47 5.59c338.6,757.42 953.65,1382.62 1732.77,1724.22 1150.82,504.57 2669.94,386.28 4210.14,-835.26 -318.98,-282.32 -577.03,-630.25 -749.19,-1039.58 -241.52,-574.26 -311.59,-1259.2 -139.67,-2039.56zm3537.65 8510.48c-155.81,199.48 -443.87,234.88 -643.35,79.07 -199.48,-155.81 -234.88,-443.87 -79.07,-643.35 1317.94,-1680.86 3133.41,-2791.7 5055.07,-3366.41 2107.03,-630.17 4349.65,-617.36 6208.19,-5.7 241.17,79.39 372.32,339.28 292.93,580.45 -79.4,241.18 -339.29,372.33 -580.46,292.93 -1686.19,-554.93 -3729.98,-563.83 -5658.28,12.88 -1752.96,524.26 -3404.07,1531.23 -4595.03,3050.13zm12830.12 -16797.63c436.25,378.72 979.41,636.25 1563.06,776.27 644.15,154.55 1336.73,165.77 1991.99,39.06 644.75,-124.66 1246.87,-382.59 1721.5,-768.25 304.92,-247.78 557.84,-549.26 735.27,-902.74 -294.34,-23.09 -587.2,-74.99 -871.04,-155.02 -791.68,-223.24 -1520.78,-666.27 -2028.16,-1313.78 -684.28,-873.25 -961.16,-2096.69 -438.74,-3621.45 -560.61,120.12 -1196.58,159.51 -1908.39,98.91 -1525.22,-129.85 -2756.52,-610.89 -3694.68,-1336.08 -1027.64,-794.35 -1695.86,-1873.87 -2008.5,-3102.16 -430.71,-1692.15 -182.14,-3668.05 736.08,-5556.78 -1287.03,201.12 -2486.84,624.12 -3545.17,1206.46 -1408.56,775.06 -2561.1,1829.86 -3329.29,3015.86 -754.27,1164.51 -1135.91,2453.63 -1019.28,3721.2 60.32,655.76 255.64,1309.99 603.72,1942.58 330.92,601.43 774.18,1113.36 1283.83,1507.61 598.22,462.76 1286.02,763.56 1988.12,856.09 263.83,34.78 530.14,39.96 794.86,13.12 4.14,-0.48 8.27,-0.89 12.39,-1.25 423.06,-44.5 841.84,-171.02 1239.56,-389.85 436.15,-239.99 849.05,-591.38 1217.52,-1067.72 154.82,-200.47 442.88,-237.48 643.36,-82.65 200.47,154.82 237.48,442.87 82.65,643.35 -450.15,581.92 -959.64,1013.98 -1501.46,1312.11 -350.93,193.1 -714.58,329.82 -1083.88,414.56 241.22,795.44 735.68,1398.17 1361.53,1816.97 491.76,329.07 1066.75,547.85 1667.42,660.28 605.41,113.31 1234.62,117.56 1829.93,16.97 1003.53,-169.58 1899.42,-635.48 2394.53,-1375.39 140.92,-210.4 425.76,-266.72 636.16,-125.79 210.41,140.92 266.73,425.75 125.8,636.16 -305.51,456.56 -718.59,831.21 -1200.69,1121.35zm13943.29 -26141.29c-119.1,94.09 -291.93,73.82 -386.02,-45.28 -94.08,-119.1 -73.81,-291.94 45.29,-386.02 566.47,-447.36 1410.67,-844.54 2314.14,-1148.9 987.58,-332.7 2053.64,-557.94 2906.24,-617.86 151.85,-10.12 283.17,104.78 293.29,256.62 10.12,151.85 -104.78,283.17 -256.63,293.29 -808.98,56.86 -1824.38,271.87 -2768.22,589.83 -849.48,286.18 -1634.75,652.93 -2148.09,1058.32zm-24673.89 68013.45c-247.13,58.55 -494.95,-94.31 -553.5,-341.44 -58.55,-247.13 94.31,-494.95 341.44,-553.5 3937.27,-937.03 7987.3,-2726.92 10713.75,-5528.03 2166.88,-2226.2 3498.07,-5102.66 3258.54,-8712.45 -227.88,-3433.87 -2197.41,-5645.39 -4591.95,-6559.98 -947.43,-361.88 -1959.93,-522.53 -2956.63,-477.25 -992.23,45.08 -1970.6,295.07 -2854.66,754.59 -2156.27,1120.78 -3745.77,3506.82 -3597.27,7233.64 9.92,253.09 -187.19,466.31 -440.28,476.23 -253.08,9.92 -466.31,-187.19 -476.23,-440.28 -164.99,-4140.85 1641.31,-6812.86 4089.67,-8085.47 1001.72,-520.67 2111.95,-803.99 3239.23,-855.22 1122.83,-51.01 2260.91,128.98 3323.23,534.75 2703.47,1032.59 4926.2,3515.82 5181.4,7361.48 258.8,3900.05 -1178.16,7006.49 -3517.33,9409.72 -2862.97,2941.36 -7076.5,4811.51 -11159.41,5783.21zm-12828.31 1719.98c-253.08,2.97 -460.67,-199.78 -463.65,-452.87 -2.97,-253.08 199.78,-460.67 452.86,-463.65 1050.68,-14.14 2451.36,-110.79 3852.16,-258.44 1348.81,-142.18 2688.41,-331 3703.61,-538.11 248.12,-50.61 490.3,109.49 540.91,357.61 50.61,248.12 -109.49,490.3 -357.61,540.91 -1048.92,213.99 -2420.13,407.73 -3793.45,552.49 -1417.73,149.43 -2847.81,247.42 -3934.83,262.06zm75812.71 -38762.81c11.31,-151.85 143.59,-265.77 295.44,-254.46 151.85,11.31 265.77,143.59 254.47,295.44 -72.02,962.67 -275.7,2235.55 -608.94,3580.01 -283.56,1143.98 -661.32,2340.93 -1132.09,3444.14 -59.54,139.94 -221.28,205.11 -361.21,145.57 -139.94,-59.54 -205.11,-221.28 -145.57,-361.21 458.6,-1074.67 827.07,-2242.64 1104.05,-3360.06 325.12,-1311.7 523.74,-2552.23 593.85,-3489.43zm-17435.2 3172.84c-95.87,-117.9 -78,-291.21 39.9,-387.09 117.9,-95.88 291.22,-78.01 387.09,39.89 882.12,1088.54 1552.21,3169.48 1792.03,5490.63 216.08,2091.48 86.75,4390.04 -547.69,6342.6 -47.04,144.7 -202.5,223.87 -347.2,176.83 -144.7,-47.04 -223.87,-202.49 -176.83,-347.2 609.59,-1876.08 732.91,-4093.59 523.96,-6116.16 -229.42,-2220.57 -854.46,-4191.56 -1671.26,-5199.5zm-11963.01 1975.24c-79.2,-129.82 -38.17,-299.28 91.65,-378.47 129.81,-79.2 299.27,-38.16 378.46,91.65 955.94,1560.78 1641.27,4601.48 1663.4,7879.38 18.43,2729.91 -420.86,5634.85 -1543.89,7999.86 -64.91,137.56 -229.06,196.46 -366.62,131.55 -137.55,-64.91 -196.45,-229.06 -131.54,-366.62 1085.53,-2286.04 1510.08,-5106.45 1492.14,-7762.64 -21.47,-3179.89 -673.9,-6109.41 -1583.6,-7594.71zm-11178.28 -5770.66c-139.35,-60.74 -203.07,-222.95 -142.33,-362.29 60.74,-139.35 222.95,-203.08 362.3,-142.34 1457.49,638.41 2966.8,1909.56 4204.05,3617.99 1115.48,1540.3 2014.03,3440.38 2457.56,5556.47 30.96,148.86 -64.63,294.67 -213.49,325.62 -148.87,30.96 -294.67,-64.63 -325.63,-213.49 -426.45,-2034.59 -1291.14,-3862.52 -2364.84,-5345.13 -1180.15,-1629.6 -2607.76,-2836.81 -3977.62,-3436.83zm-13025.47 3168.52c-253.09,-4.95 -454.23,-214.15 -449.27,-467.23 4.95,-253.09 214.15,-454.23 467.23,-449.28 5076.93,102.85 9140.98,2365.5 11927.2,5781.87 2047.52,2510.62 3401.11,5644.11 3954.78,8998.12 552.5,3346.89 308.44,6916.2 -837.79,10306.55 -788.32,2331.72 -2002.79,4578.13 -3676.78,6608.99 4984.88,-4374.96 8039.96,-10079.91 8677.28,-16695.45 23.81,-252.08 247.49,-437.14 499.58,-413.32 252.08,23.82 437.14,247.49 413.32,499.58 -818.46,8495.74 -5472.73,15535.63 -13004.81,20292.6 -3977.95,2512.33 -8759.86,4385.46 -14202.05,5497.06 14216.53,-1014.27 23796.87,-6184.52 29525.43,-12852.86 3349.3,-3898.76 5383,-8311.22 6257.37,-12701.82 873.16,-4384.53 590.17,-8743.55 -693.19,-12543.09 -1704.77,-5047.15 -5177.57,-9106.71 -10048.83,-10913.11 -238.2,-88.33 -359.69,-353.04 -271.35,-591.24 88.33,-238.2 353.04,-359.69 591.24,-271.35 5144.48,1907.71 8806.75,6179.3 10598.71,11484.56 1334.08,3949.74 1629.93,8472.67 725.56,13013.95 -903.17,4535.18 -3003.47,9092.52 -6462.25,13118.73 -3870.57,4505.54 -9442.22,8343.07 -16938.38,10732.95 8119.96,-1622.92 14945.56,-4317.84 20460.88,-7661.94 8241.26,-4996.92 13551.4,-11437.89 15875.38,-17905.21 85.35,-238.2 347.65,-362.1 585.85,-276.75 238.2,85.35 362.1,347.65 276.75,585.85 -2391.09,6654.06 -7832.27,13267.5 -16263.54,18379.62 -3583.85,2173 -7709.36,4075.42 -12371.02,5595.1 8365.89,-1891.74 16393.18,-4853.38 23211.2,-9388.31 11162.62,-7424.68 19095.05,-19089.23 19966.33,-37223.47 11.9,-253.09 226.73,-448.59 479.82,-436.69 253.09,11.9 448.59,226.73 436.69,479.82 -887.64,18474.99 -8983.14,30368.03 -20376.06,37945.89 -11353.28,7551.51 -25969.83,10794.97 -39969.75,11995.19 -6029.68,516.93 -11789.7,636.39 -16863.86,600.63 -1287.3,16.95 -2598.75,-1.81 -3933.38,-57.77l-0.22 -0.01c-2425.26,-52.76 -4636.1,-129.78 -6573.64,-197.32 -321.61,-11.2 -635.71,-22.17 -941.97,-32.69 -253.09,-7.94 -451.82,-219.54 -443.88,-472.63 7.94,-253.09 219.54,-451.82 472.63,-443.88 306.26,10.52 620.36,21.49 941.97,32.68 807.7,28.16 1663.16,57.97 2561.95,86.96 7838.74,29.88 14319.05,-1076.84 19346.72,-3048.69 5270.03,-2066.92 8929.87,-5080.64 10868.7,-8724.45 119.09,-223.3 396.68,-307.79 619.98,-188.7 223.3,119.09 307.79,396.68 188.7,619.98 -2042.27,3838.22 -5862.54,6999.08 -11343.12,9148.57 -2394.11,938.97 -5107.92,1685.54 -8131.11,2211.72 5949.63,-412.33 11294.37,-1639.1 15890.51,-3556.34 6505.5,-2755.95 10425.99,-7475.31 12166.87,-12624.47 1097.32,-3245.7 1330.9,-6663.17 801.84,-9868.07 -527.88,-3197.73 -1815.07,-6181.15 -3760.7,-8566.81 -2623.37,-3216.7 -6450.97,-5347.13 -11233.52,-5444.02zm10128.8 15369.18c-6.55,151.85 -134.97,269.63 -286.82,263.09 -151.85,-6.54 -269.63,-134.97 -263.09,-286.81 64.71,-1466.54 -246.22,-3077.11 -897.85,-4517.01 -596.22,-1317.45 -1476.51,-2487.74 -2613.08,-3266.01 -125.65,-85.75 -157.99,-257.13 -72.24,-382.78 85.74,-125.66 257.13,-158 382.78,-72.25 1225.16,838.93 2169.54,2090.46 2805,3494.61 686.37,1516.66 1013.71,3216.51 945.3,4767.16zm20915.58 -28663.75c-242.17,-75.42 -377.33,-332.9 -301.92,-575.06 75.42,-242.16 332.9,-377.33 575.06,-301.91 4474.07,1403.96 8405.21,4056.83 11038.7,7775.67 2392.21,3378.1 3709.84,7627.3 3387.42,12608.79 -15.88,253.09 -233.92,445.38 -487.01,429.5 -253.09,-15.87 -445.38,-233.92 -429.5,-487 308.12,-4760.42 -943.99,-8811.08 -3218.5,-12022.96 -2511.48,-3546.54 -6274.21,-6080.82 -10564.25,-7427.03zm11165.84 44345.85c218.35,-128.03 499.15,-54.82 627.18,163.53 128.03,218.34 54.82,499.15 -163.53,627.18 -471.19,277.28 -1210.31,651.44 -2008.04,1036.53 -1202.64,580.58 -2568.11,1200.42 -3323.95,1539.2 -231.24,103.21 -502.4,-0.59 -605.61,-231.83 -103.21,-231.24 0.59,-502.39 231.83,-605.6 740.13,-331.74 2084.17,-942.06 3298.78,-1528.41 785.93,-379.4 1505.08,-742.71 1943.34,-1000.6zm24761.11 -30105.82c55.58,-247.13 300.98,-402.41 548.11,-346.84 247.13,55.58 402.41,300.97 346.83,548.1 -1117.08,4952.47 -4019.12,10819.91 -8000.68,16129.38 -3654.84,4873.77 -8225.05,9286.33 -13166.46,12100.76 -220.33,125.05 -500.33,47.81 -625.38,-172.51 -125.05,-220.33 -47.81,-500.34 172.52,-625.38 4827.44,-2749.52 9301.41,-7072.55 12886.11,-11852.78 3905.73,-5208.34 6749.07,-10948.87 7838.95,-15780.73z"/></g><text x="0" y="100015" fill="#000000" font-size="5px" font-weight="bold" font-family="'Helvetica Neue', Helvetica, Arial-Unicode, Arial, Sans-serif">Created by Oleksandr Panasovskyi</text><text x="0" y="100020" fill="#000000" font-size="5px" font-weight="bold" font-family="'Helvetica Neue', Helvetica, Arial-Unicode, Arial, Sans-serif">from the Noun Project</text></svg>